<svg width="80" height="80" viewBox="0 0 80 80" fill="none" xmlns="http://www.w3.org/2000/svg">
<path d="M40 80C62.0914 80 80 62.0914 80 40C80 17.9086 62.0914 0 40 0C17.9086 0 0 17.9086 0 40C0 62.0914 17.9086 80 40 80Z" fill="#EDF2FF"/>
<path d="M54 29.4C55.5 29.4 56.6 30.6 56.6 32V48C56.6 49.5 55.4 50.6 54 50.6H26C24.5 50.6 23.4 49.4 23.4 48V32C23.4 30.5 24.6 29.4 26 29.4H54ZM54 28H26C23.8 28 22 29.8 22 32V48C22 50.2 23.8 52 26 52H54C56.2 52 58 50.2 58 48V32C58 29.8 56.2 28 54 28Z" fill="#222222"/>
<path d="M54 29.4C55.5 29.4 56.6 30.6 56.6 32V34.6H23.4V32C23.4 30.5 24.6 29.4 26 29.4H54ZM54 28H26C23.8 28 22 29.8 22 32V36H58V32C58 29.8 56.2 28 54 28Z" fill="#222222"/>
<path d="M33.3 46.0001H28.7C28.3 46.0001 28 45.7001 28 45.3001C28 44.9001 28.3 44.6001 28.7 44.6001H33.3C33.7 44.6001 34 44.9001 34 45.3001C34 45.7001 33.7 46.0001 33.3 46.0001Z" fill="#222222"/>
<path d="M65 40.5999L63.5 42.0999C63.2 42.3999 63.2 42.7999 63.5 43.0999C63.6 43.1999 63.8 43.2999 64 43.2999C64.2 43.2999 64.3 43.1999 64.5 43.0999L67 40.5999C67.3 40.2999 67.3 39.8999 67 39.5999L64.4 36.9999C64.1 36.6999 63.7 36.6999 63.4 36.9999C63.1 37.2999 63.1 37.6999 63.4 37.9999L64.8 39.3999H52C51.6 39.3999 51.3 39.6999 51.3 40.0999C51.3 40.4999 51.6 40.7999 52 40.7999L65 40.5999Z" fill="#222222"/>
<path d="M47.5 45.9L49 47.4C49.3 47.7 49.3 48.1 49 48.4C48.9 48.5 48.7 48.6 48.5 48.6C48.3 48.6 48.2 48.5 48 48.4L45.5 45.9C45.2 45.6 45.2 45.2 45.5 44.9L48.1 42.3C48.4 42 48.8 42 49.1 42.3C49.4 42.6 49.4 43 49.1 43.3L47.7 44.7H60.5C60.9 44.7 61.2 45 61.2 45.4C61.2 45.8 60.9 46.1 60.5 46.1L47.5 45.9Z" fill="#222222"/>
</svg>
