<svg width="80" height="80" viewBox="0 0 80 80" fill="none" xmlns="http://www.w3.org/2000/svg">
<path d="M40 80C62.0914 80 80 62.0914 80 40C80 17.9086 62.0914 0 40 0C17.9086 0 0 17.9086 0 40C0 62.0914 17.9086 80 40 80Z" fill="#EDF2FF"/>
<path d="M53 39.9C53.5 39.9 53.7 40.2 53.9 40.3C54 40.4 54.2 40.8 54.1 41.2L52 52.3C51.9 52.8 51.4 53.2 50.9 53.2H29C28.5 53.2 28 52.8 27.9 52.3L25.8 41.2C25.7 40.8 25.9 40.4 26 40.3C26.1 40.2 26.4 39.9 26.9 39.9H53ZM53 38.5H27C25.5 38.5 24.3 39.9 24.6 41.4L26.7 52.5C26.9 53.7 27.9 54.5 29.1 54.5H51C52.2 54.5 53.2 53.7 53.4 52.5L55.5 41.4C55.7 39.9 54.6 38.5 53 38.5Z" fill="#222222"/>
<path d="M39.3 49.8V43.2C39.3 42.8 39.6 42.5 40 42.5C40.4 42.5 40.7 42.8 40.7 43.2V49.8C40.7 50.2 40.4 50.5 40 50.5C39.6 50.5 39.3 50.2 39.3 49.8Z" fill="#222222"/>
<path d="M33.3 49.8V43.2C33.3 42.8 33.6 42.5 34 42.5C34.4 42.5 34.7 42.8 34.7 43.2V49.8C34.7 50.2 34.4 50.5 34 50.5C33.6 50.5 33.3 50.2 33.3 49.8Z" fill="#222222"/>
<path d="M45.3 49.8V43.2C45.3 42.8 45.6 42.5 46 42.5C46.4 42.5 46.7 42.8 46.7 43.2V49.8C46.7 50.2 46.4 50.5 46 50.5C45.6 50.5 45.3 50.2 45.3 49.8Z" fill="#222222"/>
<path d="M29.4 41.5L36.1 28.5C36.3 28.2 36.7 28 37 28.2C37.3 28.4 37.5 28.8 37.3 29.1L30.6 42.1C30.4 42.4 30 42.6 29.7 42.4C29.3 42.3 29.2 41.9 29.4 41.5Z" fill="#222222"/>
<path d="M50.6 41.5L43.9 28.5C43.7 28.2 43.3 28 43 28.2C42.7 28.4 42.5 28.8 42.7 29.1L49.4 42.1C49.6 42.4 50 42.6 50.3 42.4C50.7 42.3 50.8 41.9 50.6 41.5Z" fill="#222222"/>
<path d="M56 17.4C59.7 17.4 62.6 20.4 62.6 24C62.6 27.6 59.6 30.6 56 30.6C52.4 30.6 49.4 27.6 49.4 24C49.4 20.4 52.3 17.4 56 17.4ZM56 16C51.6 16 48 19.6 48 24C48 28.4 51.6 32 56 32C60.4 32 64 28.4 64 24C64 19.6 60.4 16 56 16Z" fill="#222222"/>
<path d="M60.1 21.2C59.8 20.9 59.4 20.9 59.1 21.2L54.9 25.4L52.8 23.3C52.5 23 52.1 23 51.8 23.3C51.5 23.6 51.5 24 51.8 24.3L54.4 26.9C54.7 27.2 55.1 27.2 55.4 26.9L60.1 22.2C60.4 21.9 60.4 21.4 60.1 21.2Z" fill="#222222"/>
</svg>
