<svg width="80" height="80" viewBox="0 0 80 80" fill="none" xmlns="http://www.w3.org/2000/svg">
<path d="M40 80C62.0914 80 80 62.0914 80 40C80 17.9086 62.0914 0 40 0C17.9086 0 0 17.9086 0 40C0 62.0914 17.9086 80 40 80Z" fill="#EDF2FF"/>
<path d="M49.9 57.5101H40.79V47.2801C40.79 45.0701 42.45 43.2301 44.65 43.0101C45.93 42.7801 48.12 42.1601 49.2 41.0801L50.84 39.4401C51.4 38.8801 52.2 38.5801 52.92 38.6001V32.6901C52.92 31.1101 54.21 29.8201 55.79 29.8201C57.37 29.8201 58.66 31.1101 58.66 32.6901V42.6301C58.66 46.2401 56.66 49.4801 53.43 51.0901L49.88 52.8701V57.5101H49.9ZM42.14 56.1501H48.54V52.0201L52.84 49.8701C55.6 48.4901 57.32 45.7101 57.32 42.6201V32.6801C57.32 31.8401 56.64 31.1601 55.8 31.1601C54.96 31.1601 54.28 31.8401 54.28 32.6801V40.3501L53.37 40.0301C52.83 39.8401 52.2 39.9801 51.79 40.3901L50.15 42.0301C48.51 43.6701 45.42 44.2501 44.82 44.3401C43.26 44.5001 42.13 45.7501 42.13 47.2701V56.1501H42.14Z" fill="black"/>
<path d="M40 40.36L39.56 39.97C38.8 39.31 38.08 38.7 37.4 38.12C32.36 33.81 29.31 31.2 29.31 27.02C29.31 24.49 30.96 20.49 35.39 20.49C37.23 20.49 38.77 21.37 40 23.11C41.22 21.37 42.77 20.49 44.61 20.49C49.04 20.49 50.69 24.5 50.69 27.02C50.69 31.2 47.65 33.81 42.6 38.12C41.92 38.7 41.2 39.31 40.44 39.97L40 40.36ZM35.39 21.85C31.95 21.85 30.66 25.02 30.66 27.03C30.66 30.59 33.36 32.9 38.27 37.1C38.82 37.57 39.39 38.06 39.99 38.58C40.59 38.06 41.16 37.57 41.71 37.11C46.62 32.91 49.32 30.6 49.32 27.04C49.32 25.04 48.04 21.86 44.59 21.86C42.95 21.86 41.64 22.8 40.58 24.73L40 25.81L39.41 24.72C38.35 22.79 37.04 21.85 35.39 21.85Z" fill="black"/>
<path d="M39.21 57.5101H30.1V52.8601L26.55 51.0801C23.33 49.4701 21.32 46.2301 21.32 42.6201V32.6801C21.32 31.1001 22.61 29.8101 24.19 29.8101C25.77 29.8101 27.06 31.1001 27.06 32.6801V38.5901C27.82 38.5901 28.59 38.8701 29.14 39.4301L30.78 41.0701C32.16 42.4501 35.24 42.9801 35.37 43.0101C37.53 43.2301 39.19 45.0601 39.19 47.2801V57.5101H39.21ZM31.46 56.1501H37.86V47.2801C37.86 45.7701 36.72 44.5101 35.22 44.3601C34.8 44.2901 31.49 43.6901 29.84 42.0401L28.2 40.4001C27.79 39.9901 27.17 39.8501 26.62 40.0401L25.71 40.3601V32.6901C25.71 31.8501 25.03 31.1701 24.19 31.1701C23.35 31.1701 22.67 31.8501 22.67 32.6901V42.6301C22.67 45.7201 24.39 48.5001 27.15 49.8801L31.45 52.0301V56.1501H31.46Z" fill="black"/>
<path d="M51.01 46.99C50.82 46.99 50.63 46.91 50.5 46.76C50.25 46.48 50.28 46.05 50.56 45.8L52.23 44.34C52.23 44.34 53.31 43.3 54.19 41.94C54.4 41.61 54.47 41.32 54.4 41.03C54.26 40.5 53.66 40.08 53.44 39.97C53.11 39.79 52.98 39.38 53.16 39.05C53.33 38.72 53.74 38.59 54.07 38.76C54.2 38.83 55.4 39.48 55.71 40.67C55.88 41.32 55.75 42.01 55.34 42.66C54.37 44.18 53.2 45.29 53.15 45.33L51.46 46.81C51.33 46.94 51.17 46.99 51.01 46.99Z" fill="black"/>
<path d="M28.99 46.99C28.83 46.99 28.67 46.93 28.54 46.82L26.87 45.36C26.8 45.29 25.64 44.18 24.66 42.67C24.24 42.02 24.12 41.33 24.29 40.68C24.61 39.49 25.8 38.84 25.93 38.77C26.26 38.6 26.67 38.73 26.84 39.06C27.01 39.39 26.88 39.8 26.55 39.97C26.33 40.09 25.73 40.51 25.59 41.03C25.52 41.31 25.58 41.61 25.79 41.94C26.67 43.31 27.76 44.35 27.77 44.36L29.42 45.8C29.7 46.05 29.73 46.48 29.48 46.76C29.37 46.91 29.18 46.99 28.99 46.99Z" fill="black"/>
</svg>
