<svg width="80" height="80" viewBox="0 0 80 80" fill="none" xmlns="http://www.w3.org/2000/svg">
<path d="M40 80C62.0914 80 80 62.0914 80 40C80 17.9086 62.0914 0 40 0C17.9086 0 0 17.9086 0 40C0 62.0914 17.9086 80 40 80Z" fill="#EDF2FF"/>
<path d="M53.5 39.1001L47.4 33.0001C47.1 32.7001 47.1 32.3001 47.4 32.0001C47.7 31.7001 48.1 31.7001 48.4 32.0001L54.5 38.1001C54.8 38.4001 54.8 38.8001 54.5 39.1001C54.2 39.4001 53.8 39.4001 53.5 39.1001Z" fill="#222222"/>
<path d="M55.6 37L49.5 30.9C49.2 30.6 49.2 30.2 49.5 29.9C49.8 29.6 50.2 29.6 50.5 29.9L56.6 36C56.9 36.3 56.9 36.7 56.6 37C56.3 37.2 55.9 37.2 55.6 37Z" fill="#222222"/>
<path d="M40.6 38.4V51.7H28C27.7 51.7 27.4 51.4 27.4 51.1V39C27.4 38.7 27.7 38.4 28 38.4H40.6ZM42 37H28C26.9 37 26 37.9 26 39V51C26 52.1 26.9 53 28 53H42V37Z" fill="#222222"/>
<path d="M38 22.4C38.3 22.4 38.6 22.7 38.6 23V27C38.6 27.3 38.3 27.6 38 27.6H26C25.7 27.6 25.4 27.3 25.4 27V23C25.4 22.7 25.7 22.4 26 22.4H38ZM38 21H26C24.9 21 24 21.9 24 23V27C24 28.1 24.9 29 26 29H38C39.1 29 40 28.1 40 27V23C40 21.9 39.1 21 38 21Z" fill="#222222"/>
<path d="M34.8 29C38 29 40.7 33 40.7 36.2V53.5C40.7 54.7 39.8 55.5999 38.6 55.5999H25.5C24.3 55.5999 23.4 54.7 23.4 53.5V36.2C23.4 33 26.1 29 29.3 29H34.8ZM34.8 27.7H29.3C25.3 27.7 22.1 32.2999 22.1 36.2999V53.5999C22.1 55.4999 23.7 57.0999 25.6 57.0999H38.7C40.6 57.0999 42.2 55.4999 42.2 53.5999V36.2C42 32.3 38.7 27.7 34.8 27.7Z" fill="#222222"/>
<path d="M31.3 27.8V22.2C31.3 21.8 31.6 21.5 32 21.5C32.4 21.5 32.7 21.8 32.7 22.2V27.8C32.7 28.2 32.4 28.5 32 28.5C31.6 28.5 31.3 28.2 31.3 27.8Z" fill="#222222"/>
<path d="M35 27.8V22.2C35 21.8 35.3 21.5 35.7 21.5C36.1 21.5 36.4 21.8 36.4 22.2V27.8C36.4 28.2 36.1 28.5 35.7 28.5C35.3 28.5 35 28.2 35 27.8Z" fill="#222222"/>
<path d="M27.7 27.8V22.2C27.7 21.8 28 21.5 28.4 21.5C28.8 21.5 29.1 21.8 29.1 22.2V27.8C29.1 28.2 28.8 28.5 28.4 28.5C28 28.5 27.7 28.2 27.7 27.8Z" fill="#222222"/>
<path d="M35.1 41.4V42.5C35.1 43.8 35.1 43.9 36.5 43.9H37.6V46.2H36.5C35.1 46.2 35.1 46.3 35.1 47.6V48.7H32.8V47.6C32.8 46.3 32.8 46.2 31.4 46.2H30.3V43.9H31.4C32.8 43.9 32.8 43.9 32.8 42.5V41.4H35.1ZM35.3 40H32.6C32 40 31.4 40.5 31.4 41.2V42.5H30.1C29.5 42.5 28.9 43 28.9 43.7V46.4C28.9 47 29.4 47.6 30.1 47.6H31.4V48.9C31.4 49.5 31.9 50.1 32.6 50.1H35.3C35.9 50.1 36.5 49.6 36.5 48.9V47.6H37.8C38.4 47.6 39 47.1 39 46.4V43.7C39 43.1 38.5 42.5 37.8 42.5H36.5V41.2C36.5 40.5 36 40 35.3 40Z" fill="#222222"/>
<path d="M56.8 44.5C56 43.7 55 43.3 54 43.3C53 43.3 51.9 43.7 51.2 44.5L45.5 50.2001C43.9 51.8001 43.9 54.3001 45.5 55.9001C46.3 56.7001 47.3 57.1 48.3 57.1C49.3 57.1 50.4 56.7001 51.1 55.9001L56.8 50.2001C58.4 48.6001 58.4 46.1 56.8 44.5ZM50.2 54.9001C49.7 55.4001 49 55.7001 48.3 55.7001C47.6 55.7001 46.9 55.4001 46.4 54.9001C45.4 53.9001 45.4 52.2001 46.4 51.2001L48.8 48.8L52.5 52.5L50.2 54.9001ZM55.9 49.2001L53.6 51.5L49.9 47.8L52.3 45.4001C52.8 44.9001 53.5 44.6 54.2 44.6C54.9 44.6 55.6 44.9001 56.1 45.4001C56.6 45.9001 56.9 46.6 56.9 47.3C56.6 48.1 56.4 48.7001 55.9 49.2001Z" fill="#222222"/>
<path d="M52 29.9C54.6 29.9 56.6 32 56.6 34.5C56.6 37 54.5 39.1 52 39.1C49.5 39.1 47.4 37 47.4 34.5C47.4 32 49.4 29.9 52 29.9ZM52 28.5C48.7 28.5 46 31.2 46 34.5C46 37.8 48.7 40.5 52 40.5C55.3 40.5 58 37.8 58 34.5C58 31.2 55.3 28.5 52 28.5Z" fill="#222222"/>
</svg>
