<svg width="80" height="80" viewBox="0 0 80 80" fill="none" xmlns="http://www.w3.org/2000/svg">
<path d="M40 80C62.0914 80 80 62.0914 80 40C80 17.9086 62.0914 0 40 0C17.9086 0 0 17.9086 0 40C0 62.0914 17.9086 80 40 80Z" fill="#EDF2FF"/>
<path d="M58 17.4C61.7 17.4 64.6 20.4 64.6 24C64.6 27.6 61.6 30.6 58 30.6C54.4 30.6 51.4 27.6 51.4 24C51.4 20.4 54.3 17.4 58 17.4ZM58 16C53.6 16 50 19.6 50 24C50 28.4 53.6 32 58 32C62.4 32 66 28.4 66 24C66 19.6 62.4 16 58 16Z" fill="#222222"/>
<path d="M62.1 21.2001C61.8 20.9001 61.4 20.9001 61.1 21.2001L56.9 25.4001L54.8 23.3001C54.5 23.0001 54.1 23.0001 53.8 23.3001C53.5 23.6001 53.5 24.0001 53.8 24.3001L56.4 26.9001C56.7 27.2001 57.1 27.2001 57.4 26.9001L62.1 22.2001C62.4 21.9001 62.4 21.4001 62.1 21.2001Z" fill="#222222"/>
<path d="M42.3 56.7001H36.7C36.3 56.7001 36 56.4 36 56C36 55.6 36.3 55.3 36.7 55.3H42.3C42.7 55.3 43 55.6 43 56C43 56.4 42.7 56.7001 42.3 56.7001Z" fill="#222222"/>
<path d="M56 41.4C56.3 41.4 56.6 41.7 56.6 42V46C56.6 46.3 56.3 46.6 56 46.6H24C23.7 46.6 23.4 46.3 23.4 46V42C23.4 41.7 23.7 41.4 24 41.4H56ZM56 40H24C22.9 40 22 40.9 22 42V46C22 47.1 22.9 48 24 48H56C57.1 48 58 47.1 58 46V42C58 40.9 57.1 40 56 40Z" fill="#222222"/>
<path d="M44 53.4C45.5 53.4 46.6 54.6 46.6 56C46.6 57.4 45.4 58.6 44 58.6H36C34.5 58.6 33.4 57.4 33.4 56C33.4 54.5 34.6 53.4 36 53.4H44ZM44 52H36C33.8 52 32 53.8 32 56C32 58.2 33.8 60 36 60H44C46.2 60 48 58.2 48 56C48 53.8 46.2 52 44 52Z" fill="#222222"/>
<path d="M43.7 55.4C44.1 55.4 44.3 55.7 44.3 56C44.3 56.3 44 56.6 43.7 56.6C43.4 56.6 43 56.4 43 56C43 55.6 43.3 55.4 43.7 55.4ZM43.7 54C42.6 54 41.7 54.9 41.7 56C41.7 57.1 42.6 58 43.7 58C44.8 58 45.7 57.1 45.7 56C45.7 54.9 44.8 54 43.7 54Z" fill="#222222"/>
<path d="M57.3 33.2C56.9 33.2 56.6 33.5 56.6 33.9V34C56.6 34.3 56.3 34.6 56 34.6H24C23.7 34.6 23.4 34.3 23.4 34V30C23.4 29.7 23.7 29.4 24 29.4H48.8C49.2 29.4 49.5 29.1 49.5 28.7C49.5 28.3 49.2 28 48.8 28H24C22.9 28 22 28.9 22 30V34C22 35.1 22.9 36 24 36H56C57.1 36 58 35.1 58 34V33.9C58 33.5 57.7 33.2 57.3 33.2Z" fill="#222222"/>
</svg>
