<svg width="80" height="80" viewBox="0 0 80 80" fill="none" xmlns="http://www.w3.org/2000/svg">
<path d="M40 80C62.0914 80 80 62.0914 80 40C80 17.9086 62.0914 0 40 0C17.9086 0 0 17.9086 0 40C0 62.0914 17.9086 80 40 80Z" fill="#EDF2FF"/>
<path d="M48.3 32.7999V31.7999C48.3 31.5999 48.3 31.3999 48.3 31.1999L48.6 31.4999C49.4 32.2999 50.6 32.2999 51.4 31.4999C52 30.8999 52.1 29.8999 51.7 29.1999C52.5 28.8999 53.1 28.1999 53.1 27.2999C53.1 26.6999 52.9 26.1999 52.5 25.8999C52.1 25.4999 51.6 25.2999 51.1 25.2999H47.1L47.2 24.9999C47.6 24.2999 47.2 23.4999 46.5 23.2999C44.3 22.6999 42.1 22.3999 39.8 22.3999C37.5 22.3999 35.3 22.6999 33.1 23.2999C32.4 23.4999 32 24.3999 32.4 24.9999L33.6 27.1999C33.6 27.1999 33.5 27.1999 33.5 27.2999C32.1 28.2999 31.4 30.2999 31.4 31.7999V32.7999C27.2 36.2999 24.4 41.9999 24.4 47.1999C24.4 56.6999 33.1 57.6999 39.6 57.6999C46.1 57.6999 54.8 56.5999 54.8 47.1999C55.2 41.9999 52.5 36.1999 48.3 32.7999ZM50.5 30.4999C50.2 30.7999 49.8 30.7999 49.6 30.4999L48.3 29.1999H50.1L50.5 29.5999C50.7 29.7999 50.7 30.1999 50.5 30.4999ZM47.2 26.5999H51.2C51.4 26.5999 51.6 26.6999 51.7 26.7999C51.8 26.8999 51.9 26.9999 51.9 27.2999C51.9 27.6999 51.6 27.8999 51.3 27.8999H47.3C47.1 27.8999 46.9 27.7999 46.9 27.6999C46.7 27.4999 46.6 27.3999 46.4 27.2999C46.4 27.2999 46.3 27.2999 46.3 27.1999L46.6 26.6999C46.7 26.5999 47 26.5999 47.2 26.5999ZM40 23.5999C42.1 23.5999 44.1 23.8999 46.1 24.3999L45 26.3999C43.5 25.8999 41.8 25.6999 40.1 25.6999C38.4 25.6999 36.6 25.8999 35.1 26.3999L34 24.3999C35.9 23.8999 37.9 23.5999 40 23.5999ZM34.5 28.3999C35.6 27.5999 37.8 27.1999 39.9 27.1999C42.1 27.1999 44.3 27.5999 45.4 28.3999C45.5 28.4999 45.6 28.5999 45.7 28.6999L45.8 28.7999C46.6 29.5999 46.9 30.8999 46.9 31.7999C46.6 31.5999 46.3 31.3999 46 31.2999C44.1 30.2999 42.1 29.5999 40 29.5999C38.7 29.5999 37.1 29.9999 35.6 30.5999C35.5 30.6999 35.3 30.6999 35.2 30.7999C34.5 31.0999 33.7 31.4999 33.1 31.8999C33.1 30.5999 33.6 28.9999 34.5 28.3999ZM40 56.3999C30.4 56.3999 26.1 53.5999 26.1 47.1999C26.1 43.4999 27.6 39.3999 30.2 36.1999C31.6 34.4999 33.1 33.1999 34.7 32.2999C34.7 32.2999 34.8 32.2999 34.8 32.1999C35.1 32.0999 35.3 31.8999 35.6 31.7999C35.8 31.6999 36 31.5999 36.2 31.5999C37.4 31.1999 38.6 30.8999 39.9 30.8999C41.6 30.8999 43.3 31.2999 44.9 32.1999C45 32.1999 45.1 32.2999 45.2 32.2999C46.8 33.1999 48.3 34.4999 49.7 36.0999C52.3 39.2999 53.8 43.3999 53.8 47.0999C53.9 53.4999 49.6 56.3999 40 56.3999Z" fill="#222222"/>
<path d="M42 37.0999H37.2C36.8 37.0999 36.5 37.3999 36.5 37.7999V42.7999H35.2C34.8 42.7999 34.5 43.0999 34.5 43.4999C34.5 43.8999 34.8 44.1999 35.2 44.1999H36.5V45.6999H35.2C34.8 45.6999 34.5 45.9999 34.5 46.3999C34.5 46.7999 34.8 47.0999 35.2 47.0999H36.5V49.5999C36.5 49.9999 36.8 50.2999 37.2 50.2999C37.6 50.2999 37.9 49.9999 37.9 49.5999V46.9999H41.9C42.3 46.9999 42.6 46.6999 42.6 46.2999C42.6 45.8999 42.3 45.5999 41.9 45.5999H37.9V44.0999H40.9H42C43.9 44.0999 45.5 42.4999 45.5 40.5999C45.5 38.6999 43.9 37.0999 42 37.0999ZM42 42.7999H40.8H37.8V38.4999H42C43.2 38.4999 44.1 39.4999 44.1 40.5999C44.2 41.7999 43.2 42.7999 42 42.7999Z" fill="#222222"/>
</svg>
