<svg width="80" height="80" viewBox="0 0 80 80" fill="none" xmlns="http://www.w3.org/2000/svg">
<path d="M40 80C62.0914 80 80 62.0914 80 40C80 17.9086 62.0914 0 40 0C17.9086 0 0 17.9086 0 40C0 62.0914 17.9086 80 40 80Z" fill="#EDF2FF"/>
<path d="M40 26.27C43.69 26.27 46.69 29.27 46.69 32.96C46.69 36.65 43.69 39.65 40 39.65C36.31 39.65 33.31 36.65 33.31 32.96C33.31 29.27 36.31 26.27 40 26.27ZM40 24.97C35.58 24.97 32 28.55 32 32.97C32 37.39 35.58 40.97 40 40.97C44.42 40.97 48 37.39 48 32.97C48 28.55 44.42 24.97 40 24.97Z" fill="black"/>
<path d="M56.49 13.51C60.18 13.51 63.18 16.51 63.18 20.2C63.18 23.89 60.18 26.89 56.49 26.89C52.8 26.89 49.8 23.89 49.8 20.2C49.8 16.51 52.8 13.51 56.49 13.51ZM56.49 12.21C52.07 12.21 48.49 15.79 48.49 20.21C48.49 24.63 52.07 28.21 56.49 28.21C60.91 28.21 64.49 24.63 64.49 20.21C64.49 15.79 60.91 12.21 56.49 12.21Z" fill="black"/>
<path d="M40 44.27C47.88 44.27 54.41 50.34 55.12 58.05H24.88C25.59 50.34 32.12 44.27 40 44.27ZM40 42.97C30.92 42.97 23.56 50.3 23.51 59.37H56.5C56.44 50.3 49.08 42.97 40 42.97Z" fill="black"/>
<path d="M60.69 19.55H57.14V16C57.14 15.64 56.85 15.35 56.49 15.35C56.13 15.35 55.84 15.64 55.84 16V19.55H52.29C51.93 19.55 51.64 19.84 51.64 20.2C51.64 20.56 51.93 20.85 52.29 20.85H55.84V24.4C55.84 24.76 56.13 25.05 56.49 25.05C56.85 25.05 57.14 24.76 57.14 24.4V20.85H60.69C61.05 20.85 61.34 20.56 61.34 20.2C61.35 19.85 61.06 19.55 60.69 19.55Z" fill="#231F20"/>
</svg>
