<svg width="80" height="80" viewBox="0 0 80 80" fill="none" xmlns="http://www.w3.org/2000/svg">
<path d="M40 80C62.0914 80 80 62.0914 80 40C80 17.9086 62.0914 0 40 0C17.9086 0 0 17.9086 0 40C0 62.0914 17.9086 80 40 80Z" fill="#EDF2FF"/>
<path d="M32.7 51.4L31.2 52.9C30.9 53.2 30.9 53.6 31.2 53.9C31.3 54 31.5 54.1 31.7 54.1C31.9 54.1 32 54 32.2 53.9L34.7 51.4C35 51.1 35 50.7 34.7 50.4L32.1 47.8C31.8 47.5 31.4 47.5 31.1 47.8C30.8 48.1 30.8 48.5 31.1 48.8L32.5 50.2H21.7C21.3 50.2 21 50.5 21 50.9C21 51.3 21.3 51.6 21.7 51.6L32.7 51.4Z" fill="#222222"/>
<path d="M47.3 24.5999L48.8 23.0999C49.1 22.7999 49.1 22.3999 48.8 22.0999C48.7 21.9999 48.5 21.8999 48.3 21.8999C48.1 21.8999 48 21.9999 47.8 22.0999L45.3 24.5999C45 24.8999 45 25.2999 45.3 25.5999L47.9 28.1999C48.2 28.4999 48.6 28.4999 48.9 28.1999C49.2 27.8999 49.2 27.4999 48.9 27.1999L47.5 25.9999H58.3C58.7 25.9999 59 25.6999 59 25.2999C59 24.8999 58.7 24.5999 58.3 24.5999H47.3Z" fill="#222222"/>
<path d="M40 29.4C44.8 29.4 48.6 33.3 48.6 38C48.6 42.7 44.7 46.6 40 46.6C35.3 46.6 31.4 42.7 31.4 38C31.4 33.3 35.2 29.4 40 29.4ZM40 28C34.5 28 30 32.5 30 38C30 43.5 34.5 48 40 48C45.5 48 50 43.5 50 38C50 32.5 45.5 28 40 28Z" fill="#222222"/>
<path d="M42 31.5H37.2C36.8 31.5 36.5 31.8 36.5 32.2V37.2H35.2C34.8 37.2 34.5 37.5 34.5 37.9C34.5 38.3 34.8 38.6 35.2 38.6H36.5V40H35.2C34.8 40 34.5 40.3 34.5 40.7C34.5 41.1 34.8 41.4 35.2 41.4H36.5V43.9C36.5 44.3 36.8 44.6 37.2 44.6C37.6 44.6 37.9 44.3 37.9 43.9V41.4H41.9C42.3 41.4 42.6 41.1 42.6 40.7C42.6 40.3 42.3 40 41.9 40H37.9V38.5H40.9H42C43.9 38.5 45.5 36.9 45.5 35C45.5 33.1 43.9 31.5 42 31.5ZM42 37.1H40.8H37.8V32.8H42C43.2 32.8 44.1 33.8 44.1 34.9C44.2 36.2 43.2 37.1 42 37.1Z" fill="#222222"/>
<path d="M48.7 18H31.3C29 18 27.1 19.9 27.1 22.2V24.8V28.7V55.2V57.8C27.1 60.1 29 62 31.3 62H48.7C51 62 52.9 60.1 52.9 57.8V22.2C52.9 19.9 51 18 48.7 18ZM51.5 57.8C51.5 59.4 50.2 60.7 48.6 60.7H31.3C29.7 60.7 28.4 59.4 28.4 57.8V55.2V24.8V22.2C28.4 20.6 29.7 19.3 31.3 19.3H48.7C50.3 19.3 51.6 20.6 51.6 22.2V57.8H51.5Z" fill="#222222"/>
<path d="M37.7 56.8C37.7 58.1 38.7 59.1 40 59.1C41.3 59.1 42.3 58.1 42.3 56.8C42.3 55.5 41.3 54.5 40 54.5C38.7 54.5 37.7 55.5 37.7 56.8ZM40.9 56.8C40.9 57.3 40.5 57.7 40 57.7C39.5 57.7 39.1 57.3 39.1 56.8C39.1 56.3 39.5 55.9 40 55.9C40.5 55.9 40.9 56.3 40.9 56.8Z" fill="#222222"/>
</svg>
