<svg width="80" height="80" viewBox="0 0 80 80" fill="none" xmlns="http://www.w3.org/2000/svg">
<path d="M40 80C62.0914 80 80 62.0914 80 40C80 17.9086 62.0914 0 40 0C17.9086 0 0 17.9086 0 40C0 62.0914 17.9086 80 40 80Z" fill="#EDF2FF"/>
<path d="M58.9 30H51.9V31.4H58.9C60.5 31.4 61.8 32.7 61.8 34.3V45.9C61.8 47.5 60.5 48.8 58.9 48.8H51.9V50H58.9C61.2 50 63.1 48.1 63.1 45.8V34.2C63.1 31.9 61.2 30 58.9 30Z" fill="#222222"/>
<path d="M35.3 46.0001H32.7C32.3 46.0001 32 45.7001 32 45.3001C32 44.9001 32.3 44.6001 32.7 44.6001H35.3C35.7 44.6001 36 44.9001 36 45.3001C36 45.7001 35.7 46.0001 35.3 46.0001Z" fill="#222222"/>
<path d="M47.3 46.0001H44.7C44.3 46.0001 44 45.7001 44 45.3001C44 44.9001 44.3 44.6001 44.7 44.6001H47.3C47.7 44.6001 48 44.9001 48 45.3001C48 45.7001 47.7 46.0001 47.3 46.0001Z" fill="#222222"/>
<path d="M41.3 46.0001H38.7C38.3 46.0001 38 45.7001 38 45.3001C38 44.9001 38.3 44.6001 38.7 44.6001H41.3C41.7 44.6001 42 44.9001 42 45.3001C42 45.7001 41.7 46.0001 41.3 46.0001Z" fill="#222222"/>
<path d="M35.3 42.4H32.7C32.3 42.4 32 42.1 32 41.7C32 41.3 32.3 41 32.7 41H35.3C35.7 41 36 41.3 36 41.7C36 42.1 35.7 42.4 35.3 42.4Z" fill="#222222"/>
<path d="M47.3 42.4H44.7C44.3 42.4 44 42.1 44 41.7C44 41.3 44.3 41 44.7 41H47.3C47.7 41 48 41.3 48 41.7C48 42.1 47.7 42.4 47.3 42.4Z" fill="#222222"/>
<path d="M41.3 42.4H38.7C38.3 42.4 38 42.1 38 41.7C38 41.3 38.3 41 38.7 41H41.3C41.7 41 42 41.3 42 41.7C42 42.1 41.7 42.4 41.3 42.4Z" fill="#222222"/>
<path d="M35.3 52.5999H32.7C32.3 52.5999 32 52.3 32 51.9C32 51.5 32.3 51.2 32.7 51.2H35.3C35.7 51.2 36 51.5 36 51.9C36 52.3 35.7 52.5999 35.3 52.5999Z" fill="#222222"/>
<path d="M47.3 52.5999H44.7C44.3 52.5999 44 52.3 44 51.9C44 51.5 44.3 51.2 44.7 51.2H47.3C47.7 51.2 48 51.5 48 51.9C48 52.3 47.7 52.5999 47.3 52.5999Z" fill="#222222"/>
<path d="M41.3 52.5999H38.7C38.3 52.5999 38 52.3 38 51.9C38 51.5 38.3 51.2 38.7 51.2H41.3C41.7 51.2 42 51.5 42 51.9C42 52.3 41.7 52.5999 41.3 52.5999Z" fill="#222222"/>
<path d="M35.3 49.2999H32.7C32.3 49.2999 32 48.9999 32 48.5999C32 48.1999 32.3 47.8999 32.7 47.8999H35.3C35.7 47.8999 36 48.1999 36 48.5999C36 48.9999 35.7 49.2999 35.3 49.2999Z" fill="#222222"/>
<path d="M47.3 49.2999H44.7C44.3 49.2999 44 48.9999 44 48.5999C44 48.1999 44.3 47.8999 44.7 47.8999H47.3C47.7 47.8999 48 48.1999 48 48.5999C48 48.9999 47.7 49.2999 47.3 49.2999Z" fill="#222222"/>
<path d="M41.3 49.2999H38.7C38.3 49.2999 38 48.9999 38 48.5999C38 48.1999 38.3 47.8999 38.7 47.8999H41.3C41.7 47.8999 42 48.1999 42 48.5999C42 48.9999 41.7 49.2999 41.3 49.2999Z" fill="#222222"/>
<path d="M46.8 28.4H33.2C32.8 28.4 32.5 28.1 32.5 27.7C32.5 27.3 32.8 27 33.2 27H46.8C47.2 27 47.5 27.3 47.5 27.7C47.5 28.1 47.2 28.4 46.8 28.4Z" fill="#222222"/>
<path d="M58.4 46.0001H55.8C55.4 46.0001 55.1 45.7001 55.1 45.3001C55.1 44.9001 55.4 44.6001 55.8 44.6001H58.4C58.8 44.6001 59.1 44.9001 59.1 45.3001C59.1 45.7001 58.8 46.0001 58.4 46.0001Z" fill="#222222"/>
<path d="M62.2 35.7001H52.6C52.2 35.7001 51.9 35.4 51.9 35C51.9 34.6 52.2 34.3 52.6 34.3H62.2C62.6 34.3 62.9 34.6 62.9 35C62.8 35.4 62.5 35.7001 62.2 35.7001Z" fill="#222222"/>
<path d="M47 33.4C47.3 33.4 47.6 33.7 47.6 34V36C47.6 36.3 47.3 36.6 47 36.6H33C32.7 36.6 32.4 36.3 32.4 36V34C32.4 33.7 32.7 33.4 33 33.4H47ZM47 32H33C31.9 32 31 32.9 31 34V36C31 37.1 31.9 38 33 38H47C48.1 38 49 37.1 49 36V34C49 32.9 48.1 32 47 32Z" fill="#222222"/>
<path d="M40 15.5L42.1 16.3C42.3 16.4 42.4 16.4 42.6 16.4C42.8 16.4 43 16.4 43.1 16.3L44.6 15.7C44.6 15.8 44.6 15.8 44.6 15.9V27.2H35.3V15.8C35.3 15.7 35.3 15.7 35.3 15.6L36.8 16.2C37 16.3 37.2 16.3 37.3 16.3C37.5 16.3 37.6 16.3 37.8 16.2L40 15.5ZM44.9 14L42.6 15L40 14L37.4 15L35.1 14C34.5 14 34 14.8 34 15.8V27.6C34 28.1 34.5 27.9 35.1 27.9H45C45.6 27.9 46.1 28.1 46.1 27.6V15.8C46 14.8 45.5 14 44.9 14Z" fill="#222222"/>
<path d="M48.7 22H45.4V23.4H48.7C50.3 23.4 51.6 24.7 51.6 26.3V53.9C51.6 55.5 50.3 56.8 48.7 56.8H31.3C29.7 56.8 28.4 55.5 28.4 53.9V26.3C28.4 24.7 29.7 23.4 31.3 23.4H34.6V22H31.3C29 22 27.1 23.9 27.1 26.2V53.8C27.1 56.1 29 58 31.3 58H48.7C51 58 52.9 56.1 52.9 53.8V26.2C52.9 23.9 51 22 48.7 22Z" fill="#222222"/>
<path d="M42.3 24.7001H37.7C37.3 24.7001 37 24.4 37 24C37 23.6 37.3 23.3 37.7 23.3H42.3C42.7 23.3 43 23.6 43 24C43 24.4 42.7 24.7001 42.3 24.7001Z" fill="#222222"/>
<path d="M42.3 21.7001H37.7C37.3 21.7001 37 21.4 37 21C37 20.6 37.3 20.3 37.7 20.3H42.3C42.7 20.3 43 20.6 43 21C43 21.4 42.7 21.7001 42.3 21.7001Z" fill="#222222"/>
</svg>
