<svg width="80" height="80" viewBox="0 0 80 80" fill="none" xmlns="http://www.w3.org/2000/svg">
<path d="M40 80C62.0914 80 80 62.0914 80 40C80 17.9086 62.0914 0 40 0C17.9086 0 0 17.9086 0 40C0 62.0914 17.9086 80 40 80Z" fill="#EDF2FF"/>
<path d="M45.8 33.4H31.6C31.2 33.4 30.9 33.1 30.9 32.7C30.9 32.3 31.2 32 31.6 32H45.8C46.2 32 46.5 32.3 46.5 32.7C46.5 33.1 46.2 33.4 45.8 33.4Z" fill="#222222"/>
<path d="M42.1 51V53.2C42.1 53.6 41.8 53.9 41.4 53.9C41 53.9 40.7 53.6 40.7 53.2V51C40.7 50.6 41 50.3 41.4 50.3C41.8 50.3 42.1 50.6 42.1 51Z" fill="#222222"/>
<path d="M33.2 51V53.2C33.2 53.6 32.9 53.9 32.5 53.9C32.1 53.9 31.8 53.6 31.8 53.2V51C31.8 50.6 32.1 50.3 32.5 50.3C32.9 50.3 33.2 50.6 33.2 51Z" fill="#222222"/>
<path d="M40.8 35.5H36C35.6 35.5 35.3 35.8 35.3 36.2V41.2H34C33.6 41.2 33.3 41.5 33.3 41.9C33.3 42.3 33.6 42.6 34 42.6H35.3V44H34C33.6 44 33.3 44.3 33.3 44.7C33.3 45.1 33.6 45.4 34 45.4H35.3V47.9C35.3 48.3 35.6 48.6 36 48.6C36.4 48.6 36.7 48.3 36.7 47.9V45.4H40.7C41.1 45.4 41.4 45.1 41.4 44.7C41.4 44.3 41.1 44 40.7 44H36.7V42.5H39.7H40.9C42.8 42.5 44.4 40.9 44.4 39C44.4 37.1 42.7 35.5 40.8 35.5ZM40.8 41.1H39.6H36.6V36.8H40.8C42 36.8 42.9 37.8 42.9 38.9C42.9 40.2 41.9 41.1 40.8 41.1Z" fill="#222222"/>
<path d="M48.2 37.3C48.1 37.3 48 37.3 47.9 37.2C47.6 37 47.5 36.6 47.7 36.3C48.1 35.7 48.7 35.3 49.5 35.3C50.2 35.3 50.9 35.7 51.3 36.3C51.5 36.6 51.4 37 51.1 37.2C50.8 37.4 50.4 37.3 50.2 37C50 36.6 49.3 36.6 49 37C48.6 37.2 48.4 37.3 48.2 37.3Z" fill="#222222"/>
<path d="M35.9 32.7C34.8 31.9 34.1 30.5 34.1 29C34.1 26.4 36.2 24.4 38.7 24.4C41.2 24.4 43.3 26.5 43.3 29C43.3 30.5 42.6 31.8 41.5 32.7H43.4C44.2 31.7 44.7 30.4 44.7 29C44.7 25.7 42 23 38.7 23C35.4 23 32.7 25.7 32.7 29C32.7 30.4 33.2 31.7 34 32.7H35.9Z" fill="#222222"/>
<path d="M57.2 36.8H55.9C54.2 32.3 49.8 29 44.7 29H43.8V30.4H44.7C49.1 30.4 53.1 33.2 54.6 37.3C54.8 37.8 55.3 38.2 55.9 38.2H57.2C57.6 38.2 57.9 38.5 57.9 38.9V43.4C57.9 43.8 57.6 44.1 57.2 44.1H56.2C56.2 43.9 56.3 43.7 56.3 43.5C56.4 42.4 56.4 41.2 56.3 40.2V40C56.2 39.7 56 39.5 55.7 39.5C55.3 39.5 55 39.8 55 40.2C55.1 41.2 55.1 42.3 55 43.3C54.9 43.9 54.8 44.5 54.7 45C53.6 47.7 51.5 49.9 48.8 51C48.3 51.2 48 51.7 48 52.3V55C48 55.4 47.7 55.7 47.3 55.7H42.8C42.4 55.7 42.1 55.4 42.1 55V53C42.1 52.3 41.5 51.6 40.7 51.6H33.2C32.5 51.6 31.8 52.2 31.8 53V55C31.8 55.4 31.5 55.7 31.1 55.7H27.6C27.1 55.7 25.7 53.4 25 52.2C23.6 49.9 22 44.4 22 41C22 35.1 26.8 30.4 32.6 30.4H33.5V29H32.6C26 29 20.6 34.4 20.6 41C20.6 44.5 22.3 50.3 23.8 52.9C25.7 56 26.5 57 27.6 57H31.1C32.2 57 33.1 56.1 33.1 55V53H40.6V55C40.6 56.1 41.5 57 42.6 57H47.1C48.2 57 49.1 56.1 49.1 55V52.1C52.2 50.8 54.6 48.3 55.8 45.2H57.1C58.2 45.2 59.1 44.3 59.1 43.2V38.7C59.3 37.7 58.4 36.8 57.2 36.8Z" fill="#222222"/>
</svg>
