<svg width="80" height="80" viewBox="0 0 80 80" fill="none" xmlns="http://www.w3.org/2000/svg">
<path d="M40 80C62.0914 80 80 62.0914 80 40C80 17.9086 62.0914 0 40 0C17.9086 0 0 17.9086 0 40C0 62.0914 17.9086 80 40 80Z" fill="#EDF2FF"/>
<path d="M55.32 40.0499H24.68C24.31 40.0499 24 39.7499 24 39.3699C24 38.9999 24.3 38.6899 24.68 38.6899H55.32C55.7 38.6999 56 38.9999 56 39.3699C56 39.7499 55.7 40.0499 55.32 40.0499Z" fill="#222222"/>
<path d="M53.32 47.28H50.68C50.31 47.28 50 46.98 50 46.6C50 46.23 50.3 45.92 50.68 45.92H53.32C53.69 45.92 54 46.22 54 46.6C54 46.97 53.7 47.28 53.32 47.28Z" fill="#222222"/>
<path d="M47.32 47.28H44.68C44.31 47.28 44 46.98 44 46.6C44 46.23 44.3 45.92 44.68 45.92H47.32C47.69 45.92 48 46.22 48 46.6C48 46.97 47.7 47.28 47.32 47.28Z" fill="#222222"/>
<path d="M41.32 47.28H38.68C38.31 47.28 38 46.98 38 46.6C38 46.23 38.3 45.92 38.68 45.92H41.32C41.69 45.92 42 46.22 42 46.6C42 46.97 41.7 47.28 41.32 47.28Z" fill="#222222"/>
<path d="M35.32 47.28H32.68C32.31 47.28 32 46.98 32 46.6C32 46.23 32.3 45.92 32.68 45.92H35.32C35.69 45.92 36 46.22 36 46.6C36 46.97 35.7 47.28 35.32 47.28Z" fill="#222222"/>
<path d="M29.32 47.28H26.68C26.31 47.28 26 46.98 26 46.6C26 46.23 26.3 45.92 26.68 45.92H29.32C29.69 45.92 30 46.22 30 46.6C30 46.97 29.7 47.28 29.32 47.28Z" fill="#222222"/>
<path d="M55.32 54.5H24.68C24.31 54.5 24 54.2 24 53.82C24 53.45 24.3 53.14 24.68 53.14H55.32C55.69 53.14 56 53.44 56 53.82C56 54.2 55.7 54.5 55.32 54.5Z" fill="#222222"/>
<path d="M30.49 22.86C31.7 22.86 32.71 23.73 32.9 24.93L33.09 26.11L34.28 26.08C34.3 26.08 34.33 26.08 34.35 26.08C34.8 26.11 35.15 26.48 35.15 26.93C35.15 27.36 34.82 27.72 34.38 27.77L34.25 27.79H26.9C26.05 27.79 25.36 27.1 25.36 26.25C25.36 25.4 26.05 24.71 26.88 24.71C26.91 24.71 26.93 24.72 26.96 24.72L27.08 24.74L27.95 24.84L28.4 24.09C28.85 23.3 29.63 22.86 30.49 22.86ZM30.49 21.5C29.1 21.5 27.9 22.25 27.23 23.36C27.12 23.35 27.01 23.33 26.89 23.33C25.29 23.33 23.99 24.63 23.99 26.23C23.99 27.83 25.29 29.13 26.89 29.13H34.51V29.1C35.63 28.99 36.5 28.06 36.5 26.91C36.5 25.69 35.51 24.7 34.29 24.7C34.27 24.7 34.25 24.71 34.23 24.71C33.95 22.89 32.39 21.5 30.49 21.5Z" fill="#222222"/>
<path d="M56 27.75C56 26.86 55.51 26.08 54.79 25.66C55 24.85 54.8 23.96 54.17 23.33C53.7 22.86 53.08 22.63 52.47 22.63C52.26 22.63 52.05 22.66 51.84 22.71C51.42 21.99 50.65 21.5 49.75 21.5C48.85 21.5 48.08 21.99 47.66 22.71C47.45 22.66 47.24 22.63 47.03 22.63C46.41 22.63 45.8 22.86 45.33 23.33C44.7 23.96 44.5 24.86 44.71 25.66C43.99 26.08 43.5 26.85 43.5 27.75C43.5 28.64 43.99 29.42 44.71 29.84C44.5 30.65 44.7 31.54 45.33 32.17C45.8 32.64 46.42 32.87 47.03 32.87C47.24 32.87 47.45 32.84 47.66 32.79C47.97 33.32 48.47 33.72 49.07 33.9V38.69C49.07 39.06 49.37 39.37 49.75 39.37C50.13 39.37 50.43 39.07 50.43 38.69V33.9C51.03 33.72 51.53 33.32 51.84 32.79C52.05 32.84 52.26 32.87 52.47 32.87C53.09 32.87 53.7 32.64 54.17 32.17C54.8 31.54 55 30.64 54.79 29.84C55.51 29.42 56 28.65 56 27.75ZM54.11 28.67C53.58 28.98 53.33 29.6 53.48 30.18C53.58 30.56 53.48 30.94 53.21 31.21C53.01 31.41 52.75 31.52 52.47 31.52C52.37 31.52 52.28 31.51 52.19 31.48C52.08 31.45 51.96 31.44 51.85 31.44C51.38 31.44 50.93 31.69 50.68 32.11C50.62 32.22 50.53 32.31 50.44 32.39V30.91L52.88 28.47C53.14 28.21 53.14 27.78 52.88 27.51C52.62 27.24 52.19 27.25 51.92 27.51L50.44 28.99V25.18C50.44 24.81 50.14 24.5 49.76 24.5C49.38 24.5 49.08 24.8 49.08 25.18V28.99L47.6 27.51C47.34 27.25 46.91 27.25 46.64 27.51C46.37 27.77 46.38 28.2 46.64 28.47L49.08 30.91V32.39C48.99 32.31 48.9 32.22 48.84 32.11C48.59 31.69 48.14 31.44 47.67 31.44C47.56 31.44 47.44 31.45 47.33 31.48C47.24 31.5 47.14 31.52 47.05 31.52C46.77 31.52 46.5 31.41 46.31 31.21C46.04 30.94 45.94 30.56 46.04 30.18C46.19 29.59 45.94 28.97 45.41 28.67C45.07 28.47 44.87 28.13 44.87 27.75C44.87 27.37 45.07 27.03 45.41 26.83C45.94 26.52 46.19 25.9 46.04 25.32C45.94 24.94 46.04 24.56 46.31 24.29C46.51 24.09 46.77 23.98 47.05 23.98C47.15 23.98 47.24 23.99 47.33 24.02C47.44 24.05 47.56 24.06 47.67 24.06C48.14 24.06 48.59 23.81 48.84 23.39C49.04 23.05 49.38 22.85 49.76 22.85C50.14 22.85 50.48 23.05 50.68 23.39C50.93 23.81 51.38 24.06 51.85 24.06C51.96 24.06 52.08 24.05 52.19 24.02C52.28 24 52.38 23.98 52.47 23.98C52.75 23.98 53.02 24.09 53.21 24.29C53.48 24.56 53.58 24.94 53.48 25.32C53.33 25.91 53.58 26.53 54.11 26.83C54.45 27.03 54.65 27.37 54.65 27.75C54.64 28.13 54.44 28.47 54.11 28.67Z" fill="#222222"/>
</svg>
