<svg width="80" height="80" viewBox="0 0 80 80" fill="none" xmlns="http://www.w3.org/2000/svg">
<path d="M40 80C62.0914 80 80 62.0914 80 40C80 17.9086 62.0914 0 40 0C17.9086 0 0 17.9086 0 40C0 62.0914 17.9086 80 40 80Z" fill="#EDF2FF"/>
<path d="M48.77 18H31.42C29.09 18 27.2 19.89 27.2 22.21V28.7C27.2 29.07 27.5 29.38 27.88 29.38C28.26 29.38 28.56 29.08 28.56 28.7V22.21C28.56 20.63 29.85 19.35 31.43 19.35H48.78C50.36 19.35 51.65 20.63 51.65 22.21V57.78C51.65 59.36 50.36 60.64 48.78 60.64H31.42C29.84 60.64 28.55 59.36 28.55 57.78V50.96C28.55 50.59 28.25 50.28 27.87 50.28C27.5 50.28 27.19 50.58 27.19 50.96V57.78C27.19 60.1 29.08 61.99 31.42 61.99H48.77C51.1 62 53 60.11 53 57.79V22.21C53 19.89 51.1 18 48.77 18ZM37.8 56.79C37.8 58.05 38.83 59.08 40.1 59.08C41.36 59.08 42.39 58.05 42.39 56.79C42.39 55.53 41.36 54.51 40.1 54.51C38.83 54.51 37.8 55.53 37.8 56.79ZM41.03 56.79C41.03 57.31 40.61 57.73 40.09 57.73C39.57 57.73 39.15 57.31 39.15 56.79C39.15 56.28 39.57 55.86 40.09 55.86C40.61 55.86 41.03 56.28 41.03 56.79ZM44.95 46.53V35.4C44.95 34.19 44.02 33.21 42.89 33.21H25.86C25.49 33.21 25.18 33.51 25.18 33.89C25.18 34.26 25.48 34.57 25.86 34.57H42.88C43.27 34.57 43.59 34.95 43.59 35.41V46.54C43.59 47 43.27 47.38 42.88 47.38H24.43C24.04 47.38 23.72 47 23.72 46.54V40.6H28.68L27.19 42.09C26.93 42.35 26.93 42.78 27.19 43.04C27.32 43.17 27.49 43.24 27.67 43.24C27.85 43.24 28.02 43.17 28.15 43.04L30.67 40.52C30.93 40.26 30.93 39.83 30.67 39.57L28.02 36.93C27.76 36.67 27.33 36.67 27.06 36.93C26.8 37.19 26.8 37.62 27.06 37.88L28.43 39.24H23.71V32.81C23.71 32.35 24.03 31.97 24.42 31.97H40.74C41.11 31.97 41.42 31.67 41.42 31.29C41.42 30.92 41.12 30.61 40.74 30.61H24.43C23.29 30.61 22.36 31.59 22.36 32.8V39.23H19.67C19.3 39.23 18.99 39.53 18.99 39.91C18.99 40.28 19.29 40.59 19.67 40.59H22.36V46.52C22.36 47.73 23.29 48.71 24.43 48.71H42.88C44.02 48.72 44.95 47.74 44.95 46.53ZM42.17 40.97C42.17 40.02 41.4 39.25 40.44 39.25C39.49 39.25 38.71 40.02 38.71 40.97C38.71 41.92 39.48 42.69 40.44 42.69C41.4 42.69 42.17 41.91 42.17 40.97ZM40.08 40.97C40.08 40.77 40.25 40.6 40.45 40.6C40.65 40.6 40.82 40.77 40.82 40.97C40.82 41.17 40.65 41.34 40.45 41.34C40.24 41.34 40.08 41.17 40.08 40.97Z" fill="#222222"/>
</svg>
