<svg width="80" height="80" viewBox="0 0 80 80" fill="none" xmlns="http://www.w3.org/2000/svg">
<path d="M40 80C62.0914 80 80 62.0914 80 40C80 17.9086 62.0914 0 40 0C17.9086 0 0 17.9086 0 40C0 62.0914 17.9086 80 40 80Z" fill="#EDF2FF"/>
<path d="M43.5 17.4L45.5 18.9C45.7 19.1 46 19.2 46.3 19.2C46.6 19.2 46.9 19.1 47.1 18.9L48.6 17.8V41.3L46.7 40C46.5 39.8 46.2 39.8 45.9 39.8C45.6 39.8 45.3 39.9 45.1 40.1L43.2 41.5L40.8 40C40.6 39.9 40.3 39.8 40.1 39.8C39.9 39.8 39.6 39.9 39.4 40L36.6 41.6L34.3 40.1C34.1 39.9 33.8 39.9001 33.5 39.9001C33.2 39.9001 32.9 40 32.6 40.2001L31.3 41.3V17.6L33.1 18.9C33.3 19.1 33.6 19.1 33.9 19.1C34.2 19.1 34.4 19 34.7 18.9L36.9 17.4L39.2 18.9C39.4 19 39.7 19.1 39.9 19.1C40.1 19.1 40.4 19 40.6 18.9L43.5 17.4ZM48.9 15.8L46.3 17.8L43.6 15.8L40 17.8L36.9 15.8L33.9 17.8L31 15.8C30.4 15.8 29.9 16.3 29.9 17V41.9001C29.9 42.4001 30.2 42.9 30.7 43C30.8 43 31.2 42.9001 31.2 42.9001L33.5 41L36.2 42.8C36.2 42.8 36.4 42.9001 36.5 42.9001C36.6 42.9001 36.8 42.8 36.8 42.8L40.1 41L43 42.8C43 42.8 43.2 42.9001 43.3 42.9001C43.4 42.9001 43.5 42.8 43.5 42.8L46 40.9001L48.8 42.8C48.8 42.8 48.9 42.9001 49 42.9001C49.1 42.9001 49.2 42.9001 49.2 42.9001C49.7 42.8001 50.1 42.3 50.1 41.8V16.9C50 16.3 49.5 15.8 48.9 15.8Z" fill="#222222"/>
<path d="M45.3 29.6H34.7C34.3 29.6 34 29.3 34 28.9C34 28.5 34.3 28.2 34.7 28.2H45.3C45.7 28.2 46 28.5 46 28.9C46 29.3 45.7 29.6 45.3 29.6Z" fill="#222222"/>
<path d="M45.3 34.5999H34.7C34.3 34.5999 34 34.3 34 33.9C34 33.5 34.3 33.2 34.7 33.2H45.3C45.7 33.2 46 33.5 46 33.9C46 34.3 45.7 34.5999 45.3 34.5999Z" fill="#222222"/>
<path d="M39.3 24.6H34.7C34.3 24.6 34 24.3 34 23.9C34 23.5 34.3 23.2 34.7 23.2H39.3C39.7 23.2 40 23.5 40 23.9C40 24.3 39.7 24.6 39.3 24.6Z" fill="#222222"/>
<path d="M52.9 30.1999C52.9 30.1999 52.8 30.1999 52.9 30.1999C52.8 30.0999 52.8 30.0999 52.8 30.0999C52.8 30.0999 52.7 30.0999 52.7 29.9999C52.6 29.8999 52.5 29.8999 52.3 29.8999C51.9 29.8999 51.6 30.1999 51.6 30.5999C51.6 30.7999 51.7 30.9999 51.9 31.0999C54.8 33.3999 56.7 36.4999 56.7 39.8999C56.7 46.8999 49.2 52.4999 40.1 52.4999C38.5 52.4999 36.9 52.2999 35.3 51.9999C35.2 51.9999 35.1 51.9999 35 51.9999C34.8 51.9999 34.6 52.0999 34.4 52.1999C32.3 53.2999 29.8 54.0999 27.1 54.4999C28.1 53.3999 28.9 52.2999 29.4 50.8999C29.6 50.2999 29.4 49.5999 28.9 49.2999C25.4 46.8999 23.4 43.4999 23.4 39.9999C23.4 36.5999 25.2 33.3999 28.2 31.1999C28.4 31.0999 28.5 30.8999 28.5 30.5999C28.5 30.1999 28.2 29.8999 27.8 29.8999C27.6 29.8999 27.4 29.9999 27.3 30.0999C24 32.6999 22 36.0999 22 39.9999C22 44.1999 24.4 47.8999 28.1 50.4999C27.2 52.5999 25.7 54.0999 23.4 56.1999C27.8 56.1999 31.8 55.1999 35 53.4999C36.6 53.8999 38.3 54.0999 40.1 54.0999C50 54.0999 58.1 47.7999 58.1 40.0999C58 36.1999 56 32.7999 52.9 30.1999Z" fill="#222222"/>
</svg>
