<svg width="80" height="80" viewBox="0 0 80 80" fill="none" xmlns="http://www.w3.org/2000/svg">
<path d="M40 80C62.0914 80 80 62.0914 80 40C80 17.9086 62.0914 0 40 0C17.9086 0 0 17.9086 0 40C0 62.0914 17.9086 80 40 80Z" fill="#EDF2FF"/>
<path d="M40 25.36C48.07 25.36 54.64 31.93 54.64 40C54.64 48.07 48.07 54.64 40 54.64C31.93 54.64 25.36 48.07 25.36 40C25.36 31.93 31.93 25.36 40 25.36ZM40 24C31.16 24 24 31.16 24 40C24 48.84 31.16 56 40 56C48.84 56 56 48.84 56 40C56 31.16 48.84 24 40 24Z" fill="#222222"/>
<path d="M44.32 21.36H35.68C35.31 21.36 35 21.06 35 20.68C35 20.3 35.3 20 35.68 20H44.32C44.7 20 45 20.3 45 20.68C45 21.05 44.7 21.36 44.32 21.36Z" fill="#222222"/>
<path d="M39.32 40.02V29.37C39.32 29 39.62 28.69 40 28.69C40.37 28.69 40.68 28.99 40.68 29.37V40.01C40.68 40.38 40.38 40.69 40 40.69C39.63 40.69 39.32 40.39 39.32 40.02Z" fill="#222222"/>
<path d="M50.63 40.68H39.99C39.62 40.68 39.31 40.38 39.31 40C39.31 39.63 39.61 39.32 39.99 39.32H50.63C51 39.32 51.31 39.62 51.31 40C51.31 40.37 51 40.68 50.63 40.68Z" fill="#222222"/>
</svg>
