<svg width="80" height="80" viewBox="0 0 80 80" fill="none" xmlns="http://www.w3.org/2000/svg">
<path d="M40 80C62.0914 80 80 62.0914 80 40C80 17.9086 62.0914 0 40 0C17.9086 0 0 17.9086 0 40C0 62.0914 17.9086 80 40 80Z" fill="#EDF2FF"/>
<path d="M42.8 55.5H37.2V49.9C37.2 49.5 36.9 49.2 36.5 49.2C36.1 49.2 35.8 49.5 35.8 49.9V55.5H30.2C29.8 55.5 29.5 55.8 29.5 56.2C29.5 56.6 29.8 56.9 30.2 56.9H42.8C43.2 56.9 43.5 56.6 43.5 56.2C43.5 55.8 43.2 55.5 42.8 55.5Z" fill="#222222"/>
<path d="M58.3 24.2999C57.7 23.5999 56.9 23.2 55.8 23.2H55.5H39.5H39.2C38.1 23.2 37.3 23.6999 36.7 24.2999C36 24.9999 35.5 26 35.5 27.1V35.0999C35.5 35.4999 35.6 35.9 35.7 36.2999C35.8 36.4999 35.9 36.7 36 36.9C36.1 37.1 36.2 37.3 36.3 37.4L36.4 37.5C36.5 37.6 36.6 37.8 36.8 37.9C36.9 37.9 36.9 38 37 38C37.1 38.1 37.3 38.1999 37.4 38.2999C37.5 38.4 37.6 38.4 37.7 38.5C37.8 38.6 37.9 38.6 38.1 38.7C38.2 38.8 38.4 38.7999 38.5 38.7999C38.6 38.7999 38.7 38.9 38.8 38.9C39.1 38.9 39.3 39 39.6 39H55.6C55.9 39 56.1 39 56.4 38.9C56.5 38.9 56.6 38.7999 56.7 38.7999C56.8 38.7999 57 38.7 57.1 38.7C57.2 38.6 57.3 38.6 57.5 38.5C57.6 38.5 57.7 38.4 57.8 38.2999C57.9 38.1999 58.1 38.1 58.2 38C58.3 38 58.3 37.9 58.4 37.9C58.5 37.8 58.7 37.6 58.8 37.5L58.9 37.4C59 37.2 59.1 37.1 59.2 36.9C59.3 36.7 59.4 36.4999 59.5 36.2999C59.6 35.9 59.7 35.4999 59.7 35.0999V27.1C59.5 26 59 24.9999 58.3 24.2999ZM55.5 24.5C56.2 24.5 56.8 24.8 57.3 25.2C57.5 25.4 57.6 25.6999 57.7 25.9C57.9 26.6 57.7 27.5 56.8 28L48.5 32.5C48.2 32.7 47.9 32.7 47.6 32.7C47.3 32.7 47 32.6 46.7 32.5L38.3 28C37.3 27.5 37.2 26.6 37.4 25.9C37.5 25.6999 37.6 25.4 37.8 25.2C38.3 24.8 38.9 24.5 39.6 24.5H55.5ZM36.9 34.7V28.6C37.1 28.8 37.4 29 37.7 29.2L43.1 32.0999L36.9 34.7ZM56.8 37.4L56.7 37.5C56.6 37.5 56.6 37.5999 56.5 37.5999C56.4 37.5999 56.3 37.7 56.2 37.7C56.1 37.7 56.1 37.7 56 37.7C55.8 37.7 55.7 37.7 55.5 37.7H39.5C39.3 37.7 39.2 37.7 39 37.7C38.9 37.7 38.9 37.7 38.8 37.7C38.7 37.7 38.6 37.5999 38.5 37.5999C38.4 37.5999 38.4 37.5 38.3 37.5C38.2 37.5 38.2 37.4 38.2 37.4C37.7 37.1 37.3 36.5999 37 36.0999C37 36.0999 37 36.0999 37.1 36.0999L42.9 33.7L44.5 33L45.9 33.7999C46.4 34.0999 46.9 34.2 47.5 34.2C48.1 34.2 48.6 34.0999 49.1 33.7999L50.5 33.0999L52.1 33.7999L57.9 36.2C57.9 36.2 57.9 36.2 58 36.2C57.7 36.7 57.3 37.1 56.8 37.4ZM52 32.2L57.4 29.2999C57.7 29.0999 58 28.9 58.2 28.7V34.7999L52 32.2Z" fill="#222222"/>
<path d="M51.8 41.4C51.4 41.4 51.1 41.7 51.1 42.1V46.1C51.1 47.6 49.9 48.7 48.5 48.7H24.5C23 48.7 21.9 47.5 21.9 46.1V34.1C21.9 32.6 23.1 31.5 24.5 31.5H32.4C32.8 31.5 33.1 31.2 33.1 30.8C33.1 30.4 32.8 30.1 32.4 30.1H24.5C22.3 30.1 20.5 31.9 20.5 34.1V46.1C20.5 48.3 22.3 50.1 24.5 50.1H48.5C50.7 50.1 52.5 48.3 52.5 46.1V42.1C52.5 41.7 52.2 41.4 51.8 41.4Z" fill="#222222"/>
<path d="M38.8 47.0999H34.2C33.8 47.0999 33.5 46.8 33.5 46.4C33.5 46 33.8 45.7 34.2 45.7H38.8C39.2 45.7 39.5 46 39.5 46.4C39.5 46.8 39.2 47.0999 38.8 47.0999Z" fill="#222222"/>
<path d="M24.2 34.5C24.5866 34.5 24.9 34.1866 24.9 33.8C24.9 33.4134 24.5866 33.1 24.2 33.1C23.8134 33.1 23.5 33.4134 23.5 33.8C23.5 34.1866 23.8134 34.5 24.2 34.5Z" fill="#222222"/>
<path d="M26.5 34.5C26.8866 34.5 27.2 34.1866 27.2 33.8C27.2 33.4134 26.8866 33.1 26.5 33.1C26.1134 33.1 25.8 33.4134 25.8 33.8C25.8 34.1866 26.1134 34.5 26.5 34.5Z" fill="#222222"/>
<path d="M28.9 34.5C29.2866 34.5 29.6 34.1866 29.6 33.8C29.6 33.4134 29.2866 33.1 28.9 33.1C28.5134 33.1 28.2 33.4134 28.2 33.8C28.2 34.1866 28.5134 34.5 28.9 34.5Z" fill="#222222"/>
</svg>
