<svg width="80" height="80" viewBox="0 0 80 80" fill="none" xmlns="http://www.w3.org/2000/svg">
<path d="M40 80C62.0914 80 80 62.0914 80 40C80 17.9086 62.0914 0 40 0C17.9086 0 0 17.9086 0 40C0 62.0914 17.9086 80 40 80Z" fill="#EDF2FF"/>
<path d="M59.1 51.9L52.9 47.2C52.7 47.1 52.5 47.1 52.4 47.2C52.2 47.3 52.1 47.5 52.2 47.6L53.2 55.3C53.2 55.6 53.6 55.7 53.8 55.6L53.9 55.5L55.5 53.8L57.4 57.2C57.6 57.5 58 57.6 58.3 57.4C58.6 57.2 58.7 56.8 58.5 56.5L56.6 53.1L58.8 52.6C58.9 52.6 58.9 52.6 58.9 52.5C59.3 52.4 59.3 52 59.1 51.9ZM55.8 52C55.6 52 55.5 52.1 55.3 52.2C55.1 52.3 55 52.4 54.9 52.5L54.2 53.2L53.7 49.5L56.7 51.7L55.8 52Z" fill="#222222"/>
<path d="M54.3 30.4H33.1C32.7 30.4 32.4 30.1 32.4 29.7C32.4 29.3 32.7 29 33.1 29H54.3C54.7 29 55 29.3 55 29.7C55 30.1 54.7 30.4 54.3 30.4Z" fill="#222222"/>
<path d="M25.7 30.4C26.0866 30.4 26.4 30.0866 26.4 29.7C26.4 29.3134 26.0866 29 25.7 29C25.3134 29 25 29.3134 25 29.7C25 30.0866 25.3134 30.4 25.7 30.4Z" fill="#222222"/>
<path d="M28 30.4C28.3866 30.4 28.7 30.0866 28.7 29.7C28.7 29.3134 28.3866 29 28 29C27.6134 29 27.3 29.3134 27.3 29.7C27.3 30.0866 27.6134 30.4 28 30.4Z" fill="#222222"/>
<path d="M30.4 30.4C30.7866 30.4 31.1 30.0866 31.1 29.7C31.1 29.3134 30.7866 29 30.4 29C30.0134 29 29.7 29.3134 29.7 29.7C29.7 30.0866 30.0134 30.4 30.4 30.4Z" fill="#222222"/>
<path d="M42 34.5H37.2C36.8 34.5 36.5 34.8 36.5 35.2V40.2H35.2C34.8 40.2 34.5 40.5 34.5 40.9C34.5 41.3 34.8 41.6 35.2 41.6H36.5V43H35.2C34.8 43 34.5 43.3 34.5 43.7C34.5 44.1 34.8 44.4 35.2 44.4H36.5V46.9C36.5 47.3 36.8 47.6 37.2 47.6C37.6 47.6 37.9 47.3 37.9 46.9V44.4H41.9C42.3 44.4 42.6 44.1 42.6 43.7C42.6 43.3 42.3 43 41.9 43H37.9V41.5H40.9H42C43.9 41.5 45.5 39.9 45.5 38C45.5 36.1 43.9 34.5 42 34.5ZM42 40.1H40.8H37.8V35.8H42C43.2 35.8 44.1 36.8 44.1 37.9C44.2 39.2 43.2 40.1 42 40.1Z" fill="#222222"/>
<path d="M53.8 26H26.2C23.9 26 22 27.9 22 30.2V49.8C22 52.1 23.9 54 26.2 54H50.6C51 54 51.3 53.7 51.3 53.3C51.3 52.9 51 52.6 50.6 52.6H26.2C24.6 52.6 23.3 51.3 23.3 49.7V30.1C23.3 28.5 24.6 27.2 26.2 27.2H53.7C55.3 27.2 56.6 28.5 56.6 30.1V47.5C56.6 47.9 56.9 48.1 57.3 48.1C57.7 48.1 58 48 58 47.6V30.2C58 27.9 56.1 26 53.8 26Z" fill="#222222"/>
</svg>
