<svg width="80" height="80" viewBox="0 0 80 80" fill="none" xmlns="http://www.w3.org/2000/svg">
<path d="M40 80C62.0914 80 80 62.0914 80 40C80 17.9086 62.0914 0 40 0C17.9086 0 0 17.9086 0 40C0 62.0914 17.9086 80 40 80Z" fill="#EDF2FF"/>
<path d="M35.91 48.74H31.49L34.64 40.75C34.75 40.47 34.64 40.16 34.38 40.01C34.12 39.86 33.79 39.91 33.59 40.14L24.15 51.06C23.99 51.24 23.96 51.49 24.06 51.71C24.16 51.93 24.38 52.06 24.62 52.06H28.8L25.03 59.12C24.89 59.39 24.97 59.71 25.21 59.89C25.32 59.97 25.45 60.01 25.58 60.01C25.74 60.01 25.9 59.95 26.02 59.83L36.35 49.78C36.53 49.61 36.58 49.35 36.49 49.12C36.39 48.89 36.16 48.74 35.91 48.74ZM27.98 56.2L30.37 51.72C30.47 51.53 30.46 51.31 30.35 51.12C30.24 50.94 30.04 50.83 29.82 50.83H25.96L32.16 43.66L30.01 49.12C29.94 49.31 29.96 49.52 30.08 49.68C30.2 49.84 30.39 49.94 30.59 49.94H34.41L27.98 56.2ZM31.78 20.17C31.54 19.95 31.16 19.95 30.92 20.18C30.66 20.43 24.55 26.29 24.55 31.51C24.55 35.19 27.6 38.18 31.35 38.18C35.1 38.18 38.15 35.19 38.15 31.51C38.16 26.07 32.04 20.4 31.78 20.17ZM31.36 36.96C28.29 36.96 25.8 34.51 25.8 31.51C25.8 27.55 30 22.89 31.37 21.47C32.74 22.85 36.93 27.38 36.93 31.51C36.92 34.51 34.43 36.96 31.36 36.96ZM28.08 31.41C28.08 31.07 27.8 30.8 27.46 30.8C27.12 30.8 26.84 31.07 26.84 31.41C26.84 33.86 28.87 35.84 31.36 35.84C31.7 35.84 31.98 35.57 31.98 35.23C31.98 34.89 31.7 34.62 31.36 34.62C29.55 34.63 28.08 33.19 28.08 31.41ZM48.97 38.17C48.98 38.17 49.05 38.17 49.06 38.17C49.37 38.16 49.62 37.93 49.65 37.63C49.68 37.37 49.53 37.12 49.3 37.01C49.24 36.95 48.99 36.63 48.92 35.53C48.79 33.53 49.35 32.77 50.22 31.62C50.81 30.84 51.54 29.86 52.2 28.28C53.93 24.13 50.23 20.34 50.07 20.18C49.93 20.04 49.74 19.97 49.53 20C49.33 20.03 49.16 20.15 49.07 20.33C49.06 20.34 48.45 21.52 46.99 23.06C45.64 24.49 42.82 27.47 42.82 31.16C42.81 37.98 48.34 38.17 48.97 38.17ZM47.89 23.89C48.75 22.98 49.33 22.19 49.7 21.65C50.57 22.78 52.1 25.28 51.04 27.82C50.44 29.26 49.79 30.13 49.21 30.9C48.3 32.12 47.51 33.17 47.68 35.61C47.71 36.11 47.78 36.51 47.87 36.83C46.37 36.5 44.05 35.31 44.05 31.17C44.05 27.96 46.65 25.21 47.89 23.89ZM51.64 37.97C51.76 38.1 51.93 38.17 52.1 38.17C52.23 38.17 52.35 38.13 52.46 38.06C52.57 37.99 55.11 36.19 55.58 33.87C56.05 31.55 54.34 28.87 54.27 28.76C54.14 28.56 53.89 28.45 53.65 28.49C53.41 28.53 53.21 28.7 53.15 28.94C53.14 28.96 52.56 31.12 51.03 33.29C49.77 35.08 50.88 37.14 51.64 37.97ZM52.05 33.98C52.91 32.75 53.5 31.54 53.86 30.64C54.24 31.53 54.56 32.68 54.37 33.63C54.1 34.94 52.9 36.11 52.22 36.69C51.84 36.08 51.35 34.98 52.05 33.98ZM55.38 45.75H53.31V45.36C53.31 44.3 52.43 43.45 51.36 43.45C50.65 43.45 50.04 43.82 49.7 44.37C49.36 43.82 48.75 43.45 48.04 43.45C47.26 43.45 46.6 43.9 46.28 44.54C45.96 43.9 45.3 43.45 44.52 43.45C43.44 43.45 42.56 44.31 42.56 45.36V52.81H40.49C40.15 52.81 39.87 53.08 39.87 53.42V56C39.87 56.34 40.15 56.61 40.49 56.61H42.56V57.08C42.56 58.14 43.44 59 44.52 59C45.3 59 45.96 58.55 46.28 57.91C46.6 58.55 47.26 59 48.04 59C48.74 59 49.35 58.63 49.7 58.08C50.05 58.63 50.66 59 51.36 59C52.44 59 53.31 58.14 53.31 57.08V49.55H55.38C55.72 49.55 56 49.28 56 48.94V46.36C56 46.02 55.72 45.75 55.38 45.75ZM42.56 55.39H41.11V54.03H42.56V55.39ZM45.23 57.07C45.23 57.46 44.91 57.77 44.52 57.77C44.13 57.77 43.8 57.46 43.8 57.07V45.36C43.8 44.97 44.12 44.66 44.52 44.66C44.91 44.66 45.23 44.97 45.23 45.36V57.07ZM48.74 57.07C48.74 57.46 48.42 57.77 48.03 57.77C47.63 57.77 47.31 57.46 47.31 57.07V45.36C47.31 44.97 47.63 44.66 48.03 44.66C48.42 44.66 48.74 44.97 48.74 45.36V57.07ZM52.07 57.07C52.07 57.46 51.75 57.77 51.36 57.77C50.96 57.77 50.64 57.46 50.64 57.07V45.36C50.64 44.97 50.96 44.66 51.36 44.66C51.75 44.66 52.07 44.97 52.07 45.36V57.07ZM54.76 48.32H53.31V46.96H54.76V48.32Z" fill="black"/>
</svg>
